<?xml version="1.0" standalone="no"?>
<!DOCTYPE svg PUBLIC "-//W3C//DTD SVG 20010904//EN"
 "http://www.w3.org/TR/2001/REC-SVG-20010904/DTD/svg10.dtd">
<svg version="1.0" xmlns="http://www.w3.org/2000/svg"
 width="130.000000pt" height="130.000000pt" viewBox="0 0 130.000000 130.000000"
 preserveAspectRatio="xMidYMid meet">
<metadata>
Created by potrace 1.14, written by Peter Selinger 2001-2017
</metadata>
<g transform="translate(0.000000,130.000000) scale(0.100000,-0.100000)"
fill="#000000" stroke="none">
<path d="M622 1161 c-13 -26 -42 -72 -63 -102 -21 -29 -51 -71 -65 -91 -68
-97 -23 -227 92 -266 70 -23 174 9 211 65 11 17 18 21 24 12 11 -19 41 61 35
94 -4 17 -2 26 4 22 6 -3 10 2 10 11 0 10 -31 47 -68 83 -38 36 -81 89 -97
116 -15 28 -35 62 -44 77 l-16 26 -23 -47z"/>
<path d="M105 636 c-11 -8 -21 -41 -29 -104 -19 -133 -17 -147 17 -148 18 -1
27 4 27 15 1 22 9 88 17 131 5 33 7 30 23 -42 23 -101 26 -108 49 -108 20 0
32 28 57 133 3 15 9 27 13 27 4 0 8 -12 9 -27 3 -48 13 -116 17 -123 7 -11 60
-6 59 5 -10 65 -16 107 -21 144 -9 71 -18 94 -40 102 -34 12 -60 -15 -74 -76
-7 -30 -15 -55 -19 -55 -4 0 -13 27 -20 59 -11 51 -16 61 -40 70 -20 7 -33 6
-45 -3z"/>
<path d="M465 629 c-17 -5 -44 -22 -60 -39 -25 -26 -29 -38 -29 -85 0 -48 4
-59 29 -85 17 -16 48 -33 73 -39 38 -8 44 -7 58 13 12 15 15 16 11 4 -4 -11
-1 -18 6 -18 14 0 58 28 68 43 4 5 19 0 35 -11 16 -11 39 -23 51 -27 18 -5 21
-3 16 17 -3 13 -19 35 -34 50 -20 18 -29 37 -29 57 0 32 29 71 53 71 9 0 12 9
9 29 -4 28 -6 29 -31 20 -14 -6 -34 -18 -44 -26 -16 -15 -19 -15 -40 4 -25 24
-97 35 -142 22z m109 -64 c36 -34 35 -78 -4 -115 -26 -24 -34 -27 -71 -20 -37
7 -58 22 -59 42 0 4 21 8 48 10 39 3 47 6 47 23 0 17 -8 20 -47 23 -31 2 -48
8 -48 16 0 14 33 33 70 39 14 2 28 5 31 6 3 0 18 -10 33 -24z"/>
<path d="M797 622 c-87 -43 -89 -185 -3 -226 124 -59 251 57 191 174 -29 56
-127 83 -188 52z m121 -56 c7 -7 15 -28 18 -47 5 -27 1 -40 -20 -62 -60 -65
-160 1 -126 83 19 46 92 61 128 26z"/>
<path d="M1033 627 c-9 -13 -15 -189 -7 -225 4 -18 10 -22 31 -19 l27 4 -2 83
-1 84 18 -29 c9 -17 28 -52 42 -79 13 -27 35 -53 48 -59 39 -19 48 8 47 135
l-1 112 -27 1 c-32 2 -36 -10 -32 -90 3 -66 1 -65 -47 28 -16 31 -33 57 -37
58 -4 0 -17 2 -29 5 -12 2 -26 -2 -30 -9z"/>
<path d="M79 293 c-7 -16 -15 -31 -17 -35 -6 -12 76 -9 83 2 3 6 -3 10 -15 10
-17 0 -19 3 -10 19 14 27 13 31 -8 31 -11 0 -25 -12 -33 -27z"/>
<path d="M186 291 c-18 -35 -13 -41 33 -41 41 0 51 6 69 37 16 30 15 33 -5 33
-10 0 -26 -15 -37 -33 -20 -34 -35 -23 -16 12 9 18 8 21 -9 21 -12 0 -26 -12
-35 -29z"/>
<path d="M318 296 c-28 -39 -23 -47 27 -45 51 3 55 5 72 36 15 26 11 29 -42
31 -32 2 -43 -3 -57 -22z m47 -26 c-3 -5 -11 -10 -16 -10 -6 0 -7 5 -4 10 3 6
11 10 16 10 6 0 7 -4 4 -10z"/>
<path d="M442 295 c-7 -14 -12 -30 -12 -35 0 -16 30 -11 36 5 4 8 10 15 15 15
5 0 9 -7 9 -15 0 -8 9 -15 20 -15 18 0 22 6 19 26 0 4 5 10 11 14 23 14 -1 30
-44 30 -36 0 -45 -4 -54 -25z m63 5 c3 -5 1 -10 -4 -10 -6 0 -11 5 -11 10 0 6
2 10 4 10 3 0 8 -4 11 -10z"/>
<path d="M572 295 c-16 -34 -15 -45 3 -45 12 0 45 47 45 65 0 17 -39 1 -48
-20z"/>
<path d="M641 299 c-11 -12 -17 -27 -14 -35 8 -23 103 -16 103 7 0 5 -9 9 -20
9 -11 0 -20 -4 -20 -10 0 -5 -4 -10 -10 -10 -14 0 -12 26 3 39 10 8 17 7 25
-1 13 -13 46 -3 37 12 -12 19 -83 11 -104 -11z"/>
<path d="M776 288 l-39 -34 57 0 c38 0 56 4 57 13 4 43 3 48 -16 51 -12 2 -37
-11 -59 -30z m35 -11 c-10 -9 -11 -8 -5 6 3 10 9 15 12 12 3 -3 0 -11 -7 -18z"/>
<path d="M896 298 c-9 -12 -16 -28 -16 -35 0 -19 27 -16 34 4 6 15 8 15 19 -2
19 -25 47 -15 62 23 13 29 13 32 -5 32 -10 0 -21 -6 -24 -12 -5 -10 -7 -10
-12 0 -9 19 -41 14 -58 -10z"/>
<path d="M1030 309 c0 -5 5 -7 12 -3 11 7 10 4 -9 -43 -11 -27 33 -12 51 17 9
17 21 28 26 25 5 -3 11 -1 15 5 4 6 -13 10 -44 10 -29 0 -51 -5 -51 -11z"/>
<path d="M1141 306 c-10 -11 -8 -16 8 -21 12 -3 21 -11 21 -16 0 -6 -6 -7 -12
-2 -21 12 -39 12 -35 0 8 -26 97 -19 97 8 0 14 -12 19 -32 16 -5 0 -8 3 -8 9
0 5 14 7 33 4 24 -4 28 -3 17 5 -22 15 -76 13 -89 -3z"/>
</g>
</svg>
